<svg width="32" height="32" viewBox="0 0 32 32" fill="none" xmlns="http://www.w3.org/2000/svg">
  <defs>
    <linearGradient id="gradient" x1="0%" y1="0%" x2="100%" y2="100%">
      <stop offset="0%" style="stop-color:#60A5FA;stop-opacity:1" />
      <stop offset="100%" style="stop-color:#A855F7;stop-opacity:1" />
    </linearGradient>
  </defs>
  
  <!-- 月亮背景 -->
  <circle cx="16" cy="16" r="14" fill="url(#gradient)" opacity="0.2"/>
  
  <!-- 月亮 -->
  <path d="M16 4C9.373 4 4 9.373 4 16s5.373 12 12 12 12-5.373 12-12S22.627 4 16 4zm0 2c5.514 0 10 4.486 10 10s-4.486 10-10 10S6 21.514 6 16 10.486 6 16 6z" fill="url(#gradient)"/>
  
  <!-- 星星 -->
  <circle cx="8" cy="8" r="1" fill="#FBBF24" opacity="0.8"/>
  <circle cx="24" cy="6" r="0.8" fill="#FBBF24" opacity="0.6"/>
  <circle cx="6" cy="20" r="0.6" fill="#FBBF24" opacity="0.7"/>
  <circle cx="26" cy="22" r="0.9" fill="#FBBF24" opacity="0.5"/>
  
  <!-- 睡眠符号 (Z) -->
  <path d="M12 12h8l-8 8h8" stroke="white" stroke-width="2" fill="none" stroke-linecap="round" stroke-linejoin="round"/>
  
  <!-- 音符 -->
  <circle cx="20" cy="8" r="1.5" fill="white" opacity="0.8"/>
  <path d="M20 9.5v4" stroke="white" stroke-width="1.5" opacity="0.8"/>
  <path d="M18 11.5h4" stroke="white" stroke-width="1.5" opacity="0.8"/>
</svg>